# xmcd
#
# Track frame offsets:
#	150
#	21683
#	38142
#	60939
#	81610
#	97852
#	115358
#	135396
#	152704
#	167016
#
# Disc length: 2502 seconds
#
# Revision: 2
# Processed by: cddbd v1.5.2PL0 Copyright (c) Steve Scherf et al.
# Submitted via: EZCDAudioConverter 8.0.2.1
#
DISCID=7c09c40a
DTITLE=Hương Lan - Tình Yêu Như Bài Ca
DYEAR=1996
DGENRE=East Asia
TTITLE0=Hương Lan - Sao trời lấp lánh
TTITLE1=Hương Lan - Tình thôn dã
TTITLE2=Tuấn Anh - Trên bờ biển vắng
TTITLE3=Hương Lan - Tìm quên
TTITLE4=Hương Lan, Tuấn Anh - Người tong mộng
TTITLE5=Hương Lan - Tình Yêu Như Bài Ca
TTITLE6=Hương Lan - Mưa sầu
TTITLE7=Hương Lan, Tuấn Đạt - Tình trên non cao
TTITLE8=Hương Lan - Nỗi sầu khôn nguôi
TTITLE9=Hương Lan - Dạ Lý Hương
EXTD=
EXTT0=
EXTT1=
EXTT2=
EXTT3=
EXTT4=
EXTT5=
EXTT6=
EXTT7=
EXTT8=
EXTT9=
PLAYORDER=
